<svg width="30" height="30" viewBox="0 0 30 30" fill="none" xmlns="http://www.w3.org/2000/svg">
<path d="M5.83635 22.9209C5.27878 22.9209 5 22.8089 5 22.5847C5 22.5452 5.00648 22.5056 5.01945 22.4661C5.03242 22.4134 5.04538 22.3606 5.05835 22.3079L9.66798 9.31638C9.73282 9.10546 9.99215 9 10.446 9H11.01C11.4639 9 11.7232 9.10546 11.788 9.31638L16.3977 22.3277C16.4366 22.42 16.456 22.5056 16.456 22.5847C16.456 22.8089 16.1772 22.9209 15.6197 22.9209H15.4641C15.2696 22.9209 15.101 22.9011 14.9584 22.8616C14.8157 22.8089 14.725 22.7232 14.6861 22.6045L13.5385 19.3616H7.82024L6.71159 22.6045C6.67269 22.7232 6.58193 22.8089 6.43929 22.8616C6.29666 22.9011 6.1281 22.9209 5.9336 22.9209H5.83635ZM8.36484 17.8588H13.0134L10.9711 11.9661C10.9193 11.7815 10.8739 11.5904 10.835 11.3927C10.7961 11.1949 10.7637 11.0038 10.7377 10.8192H10.6988C10.6599 11.0038 10.6145 11.1949 10.5627 11.3927C10.5238 11.5904 10.4719 11.7815 10.4071 11.9661L8.36484 17.8588Z" fill="black"/>
<path d="M20.0014 23C19.0548 23 18.2638 22.7627 17.6285 22.2881C16.9931 21.8004 16.6754 21.049 16.6754 20.0339C16.6754 19.2034 16.8699 18.5508 17.2589 18.0763C17.6479 17.5885 18.1601 17.2326 18.7955 17.0085C19.4308 16.7712 20.1246 16.6196 20.8766 16.5537C21.6416 16.4878 22.3937 16.4482 23.1328 16.435V15.5056C23.1328 15.0574 22.9772 14.6686 22.666 14.339C22.3548 14.0094 21.7972 13.8446 20.9933 13.8446C20.4098 13.8446 19.8976 13.9171 19.4568 14.0621C19.0289 14.194 18.6853 14.3324 18.4259 14.4774C18.1796 14.6092 18.024 14.6751 17.9591 14.6751C17.8684 14.6751 17.7711 14.6092 17.6674 14.4774C17.5636 14.3456 17.4729 14.2006 17.3951 14.0424C17.3173 13.871 17.2784 13.7524 17.2784 13.6864C17.2784 13.5151 17.4469 13.3305 17.7841 13.1328C18.1212 12.935 18.5686 12.7702 19.1261 12.6384C19.6837 12.4934 20.2866 12.4209 20.935 12.4209C21.7389 12.4209 22.4261 12.5461 22.9967 12.7966C23.5672 13.0339 24.0016 13.3832 24.2998 13.8446C24.611 14.306 24.7666 14.8663 24.7666 15.5254V19.9548C24.7666 20.4953 24.7861 20.9435 24.8249 21.2994C24.8638 21.6554 24.9028 21.9256 24.9417 22.1102C24.9806 22.2947 25 22.4068 25 22.4463C25 22.5386 24.9546 22.6177 24.8639 22.6836C24.7861 22.7363 24.6888 22.7825 24.5721 22.822C24.4554 22.8484 24.3387 22.8682 24.222 22.8814C24.1053 22.8945 24.0145 22.9011 23.9497 22.9011C23.7941 22.9011 23.6709 22.8286 23.5802 22.6836C23.5024 22.5254 23.4375 22.3409 23.3857 22.1299C23.3468 21.9058 23.3079 21.7015 23.269 21.5169C23.0226 21.7938 22.7373 22.0443 22.4132 22.2684C22.089 22.4925 21.7259 22.6704 21.324 22.8023C20.935 22.9341 20.4941 23 20.0014 23ZM20.0792 21.5565C20.7923 21.5565 21.3823 21.4181 21.8491 21.1412C22.3159 20.8644 22.7438 20.548 23.1328 20.1921V17.8588C22.6271 17.8588 22.102 17.8785 21.5574 17.9181C21.0128 17.9444 20.5006 18.0169 20.0208 18.1356C19.5411 18.2542 19.1521 18.4586 18.8538 18.7486C18.5686 19.0254 18.4259 19.4209 18.4259 19.935C18.4259 20.4623 18.5621 20.8644 18.8344 21.1412C19.1196 21.4181 19.5346 21.5565 20.0792 21.5565Z" fill="black"/>
</svg>
